<svg width="19" height="16" viewBox="0 0 19 16" fill="none" xmlns="http://www.w3.org/2000/svg">
<path id="tr&#195;&#161;i tim 1" d="M16.6769 2.10218C16.2735 1.69858 15.7945 1.37841 15.2673 1.15997C14.7401 0.941532 14.1751 0.829102 13.6044 0.829102C13.0338 0.829102 12.4687 0.941532 11.9415 1.15997C11.4144 1.37841 10.9354 1.69858 10.532 2.10218L9.69474 2.9394L8.85752 2.10218C8.04265 1.28731 6.93745 0.829524 5.78506 0.829524C4.63266 0.829524 3.52746 1.28731 2.7126 2.10218C1.89773 2.91705 1.43994 4.02224 1.43994 5.17464C1.43994 6.32703 1.89773 7.43223 2.7126 8.2471L3.54982 9.08432L9.69474 15.2292L15.8397 9.08432L16.6769 8.2471C17.0805 7.84369 17.4007 7.36471 17.6191 6.83752C17.8375 6.31034 17.95 5.74528 17.95 5.17464C17.95 4.60399 17.8375 4.03894 17.6191 3.51175C17.4007 2.98457 17.0805 2.50559 16.6769 2.10218Z" stroke="#F68422" stroke-linecap="round" stroke-linejoin="round"/>
</svg>
